# xmcd CD database file
#
# Track frame offsets:
#	150
#	31273
#	51287
#	72408
#	93790
#	110441
#	128511
#	147636
#	170934
#	186391
#	208126
#	241257
#	284125
#
# Disc length: 3948 seconds
#
# Revision: 0
# Processed by: cddbd v1.5.1PL0 Copyright (c) Steve Scherf et al.
# Submitted via: CDex 1.51
#
DISCID=ce0f6a0d
DTITLE=Michael Monroe - abandon my own mind - live
DYEAR=2000
DGENRE=Jazz
TTITLE0=Life is a Mystery
TTITLE1=You and I
TTITLE2=From My Backyard
TTITLE3=One Stupid Question
TTITLE4=Twisted
TTITLE5=Daddy Come Dance
TTITLE6=Wouldn't it be Good
TTITLE7=Summer Rain
TTITLE8=Follow Your Happiness
TTITLE9=Here Now
TTITLE10=Time OUt of Mind
TTITLE11=Twice in One Day
TTITLE12=Harmony Demo
EXTD=YEAR: 2000
EXTT0=
EXTT1=
EXTT2=
EXTT3=
EXTT4=
EXTT5=
EXTT6=
EXTT7=
EXTT8=
EXTT9=
EXTT10=
EXTT11=
EXTT12=
PLAYORDER=
